<svg xmlns="http://www.w3.org/2000/svg" xmlns:xlink="http://www.w3.org/1999/xlink" width="500" zoomAndPan="magnify" viewBox="0 0 375 374.999991" height="500" preserveAspectRatio="xMidYMid meet" version="1.0"><defs><clipPath id="c01ac8f54e"><path d="M 127 55.808594 L 198 55.808594 L 198 126 L 127 126 Z M 127 55.808594 " clip-rule="nonzero"/></clipPath><clipPath id="fca7f625f1"><path d="M 249 124 L 319.894531 124 L 319.894531 195 L 249 195 Z M 249 124 " clip-rule="nonzero"/></clipPath><clipPath id="79bb3a03da"><path d="M 177 249 L 248 249 L 248 319.058594 L 177 319.058594 Z M 177 249 " clip-rule="nonzero"/></clipPath><clipPath id="a1e924cebe"><path d="M 55.144531 180 L 126 180 L 126 251 L 55.144531 251 Z M 55.144531 180 " clip-rule="nonzero"/></clipPath></defs><rect x="-37.5" width="450" fill="#ffffff" y="-37.499999" height="449.999989" fill-opacity="1"/><rect x="-37.5" width="450" fill="#000000" y="-37.499999" height="449.999989" fill-opacity="1"/><g clip-path="url(#c01ac8f54e)"><path fill="#ffffff" d="M 188.476562 55.828125 L 197.363281 64.710938 L 136.265625 125.804688 L 127.382812 116.921875 Z M 188.476562 55.828125 " fill-opacity="1" fill-rule="nonzero"/></g><path fill="#ffffff" d="M 206.269531 73.648438 L 215.15625 82.535156 L 154.058594 143.628906 L 145.175781 134.746094 Z M 206.269531 73.648438 " fill-opacity="1" fill-rule="nonzero"/><path fill="#ffffff" d="M 224.0625 91.410156 L 232.949219 100.296875 L 171.851562 161.390625 L 162.96875 152.503906 Z M 224.0625 91.410156 " fill-opacity="1" fill-rule="nonzero"/><path fill="#ffffff" d="M 241.855469 109.234375 L 250.738281 118.117188 L 189.644531 179.210938 L 180.757812 170.328125 Z M 241.855469 109.234375 " fill-opacity="1" fill-rule="nonzero"/><g clip-path="url(#fca7f625f1)"><path fill="#ffffff" d="M 319.769531 185.949219 L 310.886719 194.835938 L 249.789062 133.742188 L 258.675781 124.855469 Z M 319.769531 185.949219 " fill-opacity="1" fill-rule="nonzero"/></g><path fill="#ffffff" d="M 301.976562 203.714844 L 293.09375 212.597656 L 231.996094 151.503906 L 240.882812 142.621094 Z M 301.976562 203.714844 " fill-opacity="1" fill-rule="nonzero"/><path fill="#ffffff" d="M 284.1875 221.535156 L 275.300781 230.421875 L 214.207031 169.328125 L 223.089844 160.441406 Z M 284.1875 221.535156 " fill-opacity="1" fill-rule="nonzero"/><path fill="#ffffff" d="M 266.394531 239.300781 L 257.507812 248.183594 L 196.414062 187.089844 L 205.296875 178.207031 Z M 266.394531 239.300781 " fill-opacity="1" fill-rule="nonzero"/><g clip-path="url(#79bb3a03da)"><path fill="#ffffff" d="M 186.515625 319.21875 L 177.632812 310.332031 L 238.726562 249.238281 L 247.613281 258.125 Z M 186.515625 319.21875 " fill-opacity="1" fill-rule="nonzero"/></g><path fill="#ffffff" d="M 168.722656 301.394531 L 159.839844 292.511719 L 220.933594 231.417969 L 229.820312 240.300781 Z M 168.722656 301.394531 " fill-opacity="1" fill-rule="nonzero"/><path fill="#ffffff" d="M 150.929688 283.632812 L 142.046875 274.746094 L 203.144531 213.652344 L 212.027344 222.539062 Z M 150.929688 283.632812 " fill-opacity="1" fill-rule="nonzero"/><path fill="#ffffff" d="M 133.136719 265.808594 L 124.253906 256.925781 L 185.351562 195.832031 L 194.234375 204.714844 Z M 133.136719 265.808594 " fill-opacity="1" fill-rule="nonzero"/><path fill="#ffffff" d="M 178.585938 187.886719 L 169.703125 196.769531 L 108.605469 135.675781 L 117.492188 126.792969 Z M 178.585938 187.886719 " fill-opacity="1" fill-rule="nonzero"/><path fill="#ffffff" d="M 160.792969 205.710938 L 151.910156 214.59375 L 90.8125 153.5 L 99.699219 144.617188 Z M 160.792969 205.710938 " fill-opacity="1" fill-rule="nonzero"/><path fill="#ffffff" d="M 143.003906 223.472656 L 134.117188 232.355469 L 73.023438 171.261719 L 81.90625 162.378906 Z M 143.003906 223.472656 " fill-opacity="1" fill-rule="nonzero"/><g clip-path="url(#a1e924cebe)"><path fill="#ffffff" d="M 125.210938 241.296875 L 116.324219 250.179688 L 55.230469 189.085938 L 64.113281 180.199219 Z M 125.210938 241.296875 " fill-opacity="1" fill-rule="nonzero"/></g></svg>